<svg width="24" height="24" viewBox="0 0 24 24" fill="none" xmlns="http://www.w3.org/2000/svg">
<path d="M2.70526 14.5776C2.24162 17.0653 2.38328 19.628 3.11828 22.0494C3.52538 21.558 4.09045 21.223 4.71702 21.1018C5.3436 20.9806 5.99281 21.0807 6.55383 21.3849C6.22158 19.797 4.91766 18.8877 4.12077 17.4162C3.58454 16.5035 3.11159 15.5551 2.70526 14.5776Z" fill="#043F84"/>
<path d="M6.05069 1.5C6.13143 1.90292 6.08689 2.3209 5.92304 2.69775C5.91041 2.76846 5.90288 2.83998 5.90051 2.91177C6.54808 2.46713 7.26314 2.12987 8.01814 1.91301C7.38443 1.68552 6.72238 1.54654 6.05069 1.5Z" fill="#043F84"/>
<path d="M10.3949 8.01063C10.4603 8.02066 10.5219 8.04756 10.5738 8.08868C10.6256 8.1298 10.6658 8.18372 10.6904 8.24512C10.7151 8.30653 10.7233 8.37329 10.7143 8.43884C10.7052 8.50438 10.6793 8.56643 10.6389 8.61888L9.91425 9.15581C9.74796 9.39401 9.90955 9.60684 10.1433 9.67396C10.55 9.83269 10.9319 10.0489 11.2772 10.316C11.6051 9.53497 11.7846 8.6997 11.8066 7.85292C11.8118 7.78166 11.8382 7.71357 11.8824 7.65739C11.9265 7.6012 11.9864 7.55947 12.0544 7.53755C12.6595 7.36899 13.2755 7.24227 13.898 7.1583C14.4292 7.13484 14.9365 6.93086 15.336 6.58008C15.6147 6.32325 15.8056 5.98533 15.8817 5.61408C15.9579 5.24284 15.9154 4.85705 15.7603 4.51127C15.7528 4.49999 14.5851 2.35232 10.1658 2.35232C4.91488 2.28363 1.33864 8.43671 3.06576 13.3498C3.31129 14.117 3.61892 14.8629 3.9856 15.5801C5.57009 7.47369 10.1921 7.98435 10.3949 8.01063ZM13.331 3.65894C13.4293 3.66085 13.523 3.70126 13.5918 3.77146C13.6607 3.84167 13.6993 3.93608 13.6992 4.03442C13.6992 4.13275 13.6607 4.22716 13.5918 4.29736C13.523 4.36756 13.4293 4.40796 13.331 4.40987C13.2327 4.40795 13.1391 4.36755 13.0702 4.29734C13.0014 4.22714 12.9628 4.13273 12.9628 4.03439C12.9628 3.93606 13.0014 3.84165 13.0702 3.77145C13.1391 3.70125 13.2327 3.66085 13.331 3.65894Z" fill="#043F84"/>
<path d="M17.9493 22.5C17.8681 22.0971 17.9126 21.679 18.077 21.3022C18.0845 21.2459 18.092 21.1708 18.0995 21.092C17.4502 21.5327 16.7355 21.8684 15.9818 22.087C16.6155 22.3145 17.2776 22.4535 17.9493 22.5Z" fill="#043F84"/>
<path d="M21.2948 9.42238C21.7585 6.93596 21.6168 4.37444 20.8817 1.95432C20.4828 2.43181 19.9356 2.76222 19.3273 2.89299C18.6859 3.0271 18.0178 2.9286 17.4424 2.61511C17.7796 4.20061 19.0787 5.11426 19.8792 6.58383C20.4148 7.49687 20.8877 8.44524 21.2948 9.42238Z" fill="#043F84"/>
<path d="M20.0144 8.42365C18.4299 16.53 13.8116 16.0156 13.6051 15.9894C13.5396 15.9802 13.4777 15.954 13.4256 15.9134C13.3735 15.8727 13.333 15.819 13.3083 15.7577C13.2835 15.6964 13.2754 15.6296 13.2846 15.5642C13.2939 15.4987 13.3203 15.4369 13.3611 15.3848L14.0858 14.8442C14.2501 14.6105 14.0877 14.3883 13.853 14.3298C13.4487 14.1668 13.0685 13.9495 12.7228 13.684C12.3965 14.4481 12.2193 15.2676 12.2009 16.0982C12.1997 16.1835 12.1714 16.2663 12.1201 16.3344C12.0688 16.4026 11.9972 16.4527 11.9155 16.4775C11.3174 16.6343 10.7106 16.7559 10.0983 16.8416C9.56873 16.8676 9.0634 17.0713 8.66397 17.4199C8.38517 17.6766 8.19392 18.0143 8.11713 18.3854C8.04034 18.7566 8.08189 19.1424 8.23593 19.4887C8.24345 19.5037 9.41115 21.6477 13.8342 21.6477C19.0859 21.7168 22.6605 15.5668 20.9343 10.6539C20.6884 9.88687 20.3808 9.141 20.0144 8.42365ZM10.669 20.341C10.5707 20.3391 10.4771 20.2986 10.4083 20.2284C10.3395 20.1582 10.3009 20.0639 10.3009 19.9656C10.3009 19.8673 10.3395 19.7729 10.4083 19.7027C10.4771 19.6325 10.5707 19.5921 10.669 19.5901C10.7673 19.5921 10.8609 19.6325 10.9297 19.7027C10.9985 19.7729 11.037 19.8673 11.037 19.9656C11.037 20.0639 10.9985 20.1583 10.9296 20.2285C10.8608 20.2987 10.7672 20.3391 10.669 20.341Z" fill="#043F84"/>
</svg>
