<svg width="97" height="23" viewBox="0 0 97 23" fill="none" xmlns="http://www.w3.org/2000/svg">
<path d="M9.47887 22.36C7.79887 22.36 6.18887 22.14 4.64887 21.7C3.10887 21.24 1.86887 20.65 0.928867 19.93L2.57887 16.27C3.47887 16.91 4.53887 17.44 5.75887 17.86C6.99887 18.26 8.24887 18.46 9.50887 18.46C10.4689 18.46 11.2389 18.37 11.8189 18.19C12.4189 17.99 12.8589 17.72 13.1389 17.38C13.4189 17.04 13.5589 16.65 13.5589 16.21C13.5589 15.65 13.3389 15.21 12.8989 14.89C12.4589 14.55 11.8789 14.28 11.1589 14.08C10.4389 13.86 9.63887 13.66 8.75887 13.48C7.89887 13.28 7.02887 13.04 6.14887 12.76C5.28887 12.48 4.49887 12.12 3.77887 11.68C3.05887 11.24 2.46887 10.66 2.00887 9.94C1.56887 9.22 1.34887 8.3 1.34887 7.18C1.34887 5.98 1.66887 4.89 2.30887 3.91C2.96887 2.91 3.94887 2.12 5.24887 1.54C6.56887 0.939999 8.21887 0.64 10.1989 0.64C11.5189 0.64 12.8189 0.799999 14.0989 1.12C15.3789 1.42 16.5089 1.88 17.4889 2.5L15.9889 6.19C15.0089 5.63 14.0289 5.22 13.0489 4.96C12.0689 4.68 11.1089 4.54 10.1689 4.54C9.22887 4.54 8.45887 4.65 7.85887 4.87C7.25887 5.09 6.82887 5.38 6.56887 5.74C6.30887 6.08 6.17887 6.48 6.17887 6.94C6.17887 7.48 6.39887 7.92 6.83887 8.26C7.27887 8.58 7.85887 8.84 8.57887 9.04C9.29887 9.24 10.0889 9.44 10.9489 9.64C11.8289 9.84 12.6989 10.07 13.5589 10.33C14.4389 10.59 15.2389 10.94 15.9589 11.38C16.6789 11.82 17.2589 12.4 17.6989 13.12C18.1589 13.84 18.3889 14.75 18.3889 15.85C18.3889 17.03 18.0589 18.11 17.3989 19.09C16.7389 20.07 15.7489 20.86 14.4289 21.46C13.1289 22.06 11.4789 22.36 9.47887 22.36ZM26.7497 22L19.8797 0.999999H24.9197L30.8897 19.6H28.3697L34.6097 0.999999H39.1097L45.1097 19.6H42.6797L48.7997 0.999999H53.4497L46.5797 22H41.3597L36.0497 5.68H37.4297L31.9697 22H26.7497ZM52.6997 22L62.0597 0.999999H66.8597L76.2497 22H71.1497L63.4697 3.46H65.3897L57.6797 22H52.6997ZM57.3797 17.5L58.6697 13.81H69.4697L70.7897 17.5H57.3797ZM78.4285 22V0.999999H87.5185C89.3985 0.999999 91.0185 1.31 92.3785 1.93C93.7385 2.53 94.7885 3.4 95.5285 4.54C96.2685 5.68 96.6385 7.04 96.6385 8.62C96.6385 10.18 96.2685 11.53 95.5285 12.67C94.7885 13.81 93.7385 14.69 92.3785 15.31C91.0185 15.91 89.3985 16.21 87.5185 16.21H81.1285L83.2885 14.02V22H78.4285ZM83.2885 14.56L81.1285 12.25H87.2485C88.7485 12.25 89.8685 11.93 90.6085 11.29C91.3485 10.65 91.7185 9.76 91.7185 8.62C91.7185 7.46 91.3485 6.56 90.6085 5.92C89.8685 5.28 88.7485 4.96 87.2485 4.96H81.1285L83.2885 2.65V14.56Z" fill="url(#paint0_linear_974_921)"/>
<defs>
<linearGradient id="paint0_linear_974_921" x1="49" y1="-1" x2="49" y2="23" gradientUnits="userSpaceOnUse">
<stop stop-color="#2E79CC"/>
<stop offset="1" stop-color="#173D66"/>
</linearGradient>
</defs>
</svg>
